<svg xmlns="http://www.w3.org/2000/svg" viewBox="0 0 512 512" width="512" height="512">
  <!-- Bone -->
  <path d="M235,250 
           L235,160 
           C215,160 215,130 235,130 
           C235,110 265,110 265,130 
           C285,130 285,160 265,160 
           L265,250 Z" 
        fill="#e8e8e8" stroke="#000" stroke-width="10"/>

  <!-- Lower Body -->
  <path d="M140,250
           L360,250
           L360,350 
           C360,450 360,450 300,450 
           C260,450 260,400 260,350 
           L240,350 
           C240,400 240,450 200,450 
           C140,450 140,450 140,350 
           Z" 
        fill="#ff1111" stroke="#000" stroke-width="10"/>

  <!-- Severed Meat -->
  <ellipse cx="250" cy="250" rx="110" ry="30" fill="#7a0000" stroke="#000" stroke-width="10"/>
  
  <!-- Bone Base (covering the meat stroke slightly for depth if needed, or just re-draw bone on top) -->
  <!-- Redrawing bone on top to ensure it's in front of the meat ellipse -->
  <path d="M235,250 
           L235,160 
           C215,160 215,130 235,130 
           C235,110 265,110 265,130 
           C285,130 285,160 265,160 
           L265,260 
           C265,265 235,265 235,260 Z" 
        fill="#e8e8e8" stroke="#000" stroke-width="10"/>

</svg>
